<svg width="16" height="16" viewBox="0 0 16 16" fill="none" xmlns="http://www.w3.org/2000/svg">
<path d="M16 8.17778C16 7.52001 15.9455 7.04001 15.8277 6.54224H8.16327V9.51109H12.6621C12.5714 10.2489 12.0816 11.36 10.9932 12.1066L10.9779 12.206L13.4013 14.0458L13.5692 14.0622C15.1111 12.6667 16 10.6133 16 8.17778Z" fill="#4285F4"/>
<path d="M8.16326 16C10.3673 16 12.2176 15.2888 13.5692 14.0622L10.9932 12.1066C10.3038 12.5777 9.37866 12.9066 8.16326 12.9066C6.00455 12.9066 4.17236 11.5111 3.51924 9.58221L3.42351 9.59018L0.903681 11.5013L0.870728 11.5911C2.21312 14.2044 4.97049 16 8.16326 16Z" fill="#34A853"/>
<path d="M3.51924 9.58222C3.34691 9.08445 3.24717 8.55108 3.24717 7.99999C3.24717 7.44885 3.34691 6.91553 3.51017 6.41776L3.50561 6.31175L0.954205 4.36993L0.870727 4.40885C0.317464 5.4933 0 6.71111 0 7.99999C0 9.28888 0.317464 10.5066 0.870727 11.5911L3.51924 9.58222Z" fill="#FBBC05"/>
<path d="M8.16327 3.09331C9.69612 3.09331 10.7301 3.7422 11.3197 4.28446L13.6236 2.08C12.2086 0.791114 10.3673 0 8.16327 0C4.97049 0 2.21312 1.79554 0.870728 4.40885L3.51017 6.41777C4.17236 4.48889 6.00455 3.09331 8.16327 3.09331Z" fill="#EB4335"/>
</svg>
